<svg id="Layer_1" data-name="Layer 1" xmlns="http://www.w3.org/2000/svg" xmlns:xlink="http://www.w3.org/1999/xlink" width="474" height="557" viewBox="0 0 474 557"><defs><style>.cls-1{fill:#f96;}.cls-2{fill:#3d3536;}.cls-11,.cls-3{fill:#db5583;}.cls-3{stroke:#b164a5;}.cls-12,.cls-15,.cls-17,.cls-18,.cls-19,.cls-3,.cls-5,.cls-6,.cls-9{stroke-miterlimit:10;}.cls-4{fill:#f2c0c9;}.cls-5{fill:#f2b1b7;stroke:#f2b1b7;}.cls-6{fill:#fc0;stroke:#fc0;}.cls-7{fill:#f90;}.cls-8{fill:#fbdde4;}.cls-12,.cls-15,.cls-9{fill:none;}.cls-9{stroke:#db5583;}.cls-10{fill:#c44d7b;}.cls-12{stroke:#050505;stroke-linecap:round;}.cls-13{fill:#f99;}.cls-14{fill:#2b2627;}.cls-15{stroke:#3d3536;}.cls-16{fill:#fff;}.cls-17,.cls-18,.cls-19{stroke:#000;stroke-width:0.3px;}.cls-17{fill:url(#Summer);}.cls-18{fill:url(#Summer-2);}.cls-19{fill:#aa0049;}.cls-20{fill:#fcee21;}</style><radialGradient id="Summer" cx="251.31" cy="420.72" r="11.05" gradientTransform="translate(89.55 -61.35) rotate(12.42)" gradientUnits="userSpaceOnUse"><stop offset="0" stop-color="#fff"/><stop offset="0.09" stop-color="#ffedd8"/><stop offset="0.21" stop-color="#ffd5a7"/><stop offset="0.33" stop-color="#ffc17d"/><stop offset="0.46" stop-color="#ffb05b"/><stop offset="0.59" stop-color="#ffa340"/><stop offset="0.72" stop-color="#ff9a2d"/><stop offset="0.86" stop-color="#ff9522"/><stop offset="1" stop-color="#ff931e"/></radialGradient><radialGradient id="Summer-2" cx="257.87" cy="429.61" r="10.93" xlink:href="#Summer"/></defs><title>NYLAArtboard 13</title><path class="cls-1" d="M315.07,158.2c39.83-62.88,18.46-84.57,18.46-84.57s-37-55.09-88.95,76.92"/><path class="cls-2" d="M282,159.72c13.27-24.83,11.62-31.88,11.62-31.88s-11.43,21.63-11.53,26.75Z"/><ellipse class="cls-3" cx="205.87" cy="507.48" rx="21.52" ry="19.98"/><path class="cls-4" d="M159.81,382.64C92.45,459.12,83.1,529.15,140.49,502.42S159.81,382.64,159.81,382.64Z"/><ellipse class="cls-5" cx="236.25" cy="434.17" rx="103.26" ry="76.71"/><path class="cls-4" d="M312.6,379.65c-21.4,99.63-72.11,148.81-84.78,86.78S312.6,379.65,312.6,379.65Z"/><path class="cls-6" d="M218.89,165.52C198.46,85.88,154,62.15,244.87,23.71S250,153.57,250,153.57"/><path class="cls-1" d="M169.57,158.72c-36.47-60.65-16.3-81.63-16.3-81.63s35.12-53.28,82.13,74.1"/><path class="cls-2" d="M195.13,173.44C185.31,147.19,180,143,180,143s8.61,22.79,11.85,26.59Z"/><path class="cls-2" d="M193.45,159.24c-7.32-27.19-13.34-31.2-13.34-31.2s6.46,23.6,9.9,27.4Z"/><path class="cls-7" d="M330.34,169.77s84.3-52.43,42.8-58.75-75.58,42.06-75.58,42.06"/><path class="cls-2" d="M289.52,159.18c10.81-32.48,22.77-32.88,22.77-32.88s-9.62,28.09-16.19,30.49Z"/><path class="cls-8" d="M274.41,487.94c.78-9.84-21.49,2.79-48.2.7s-47.73-18.13-48.5-8.28,20.25,19.51,47,21.61S273.64,497.78,274.41,487.94Z"/><path class="cls-7" d="M150.69,170.61s-81.26-56.42-39.47-60.73,73.13,45.64,73.13,45.64"/><path class="cls-2" d="M179.55,161.64c-21.5-26.64-15.38-36.93-15.38-36.93s18.45,23.27,16.91,30.1Z"/><ellipse class="cls-5" cx="398.82" cy="261.95" rx="30.18" ry="46.89"/><path class="cls-9" d="M163.31,382.53c-27.94,23.82-32.1,64.73-9.31,91.47"/><path class="cls-10" d="M350.16,320.8C313.82,323.17,365,294.88,363,263.5s-56.52-54-20.18-56.33,67.45,21.15,69.49,52.53S386.5,318.43,350.16,320.8Z"/><path class="cls-11" d="M383.47,213.3c-9.86.34,5.19,20.56,6.11,46.73s-12.66,48.36-2.79,48,17.12-21.84,16.2-48S393.34,213,383.47,213.3Z"/><ellipse class="cls-5" cx="62.18" cy="261.95" rx="30.18" ry="46.89"/><path class="cls-10" d="M118.43,318.41c34.07-2.22-17-23.85-19.09-55.23s45.76-60.62,11.69-58.4-60,29.45-58,60.83S84.36,320.63,118.43,318.41Z"/><path class="cls-2" d="M196.13,170.44C186.31,144.19,181,140,181,140s8.61,22.79,11.85,26.59Z"/><path class="cls-2" d="M284.66,174.57c10.86-25.83,9.87-32.46,9.87-32.46s-9.37,22.48-9.62,27.47Z"/><path class="cls-11" d="M70.21,216.4c5.41-.19-1.75,20.17-.86,45.53s9.48,46.12,4.07,46.31S62.91,288,62,262.66,64.8,216.58,70.21,216.4Z"/><path class="cls-4" d="M398.82,271.83c0,68.07-74.84,123.24-167.16,123.24S64.5,339.9,64.5,271.83,83.16,153.38,231.66,148.6C376.76,143.92,398.82,203.77,398.82,271.83Z"/><path class="cls-12" d="M333.31,235.7A12,12,0,0,0,329.89,219"/><path class="cls-12" d="M337.26,241.19a12,12,0,0,0,6.68-15.65"/><path class="cls-12" d="M109.44,224.59c-1.9,5.06,1.65,11.07,7.94,13.43"/><path class="cls-12" d="M121.36,222.12c-2.55,4.77.18,11.2,6.11,14.37"/><path class="cls-2" d="M155.67,248.78c0,11.63-12.15-2.78-24.67-2.78s-20.69,14.41-20.69,2.78,10.15-21.06,22.68-21.06S155.67,237.15,155.67,248.78Z"/><path class="cls-2" d="M342.12,248.78c0,11.63-10.6,18.22-23.12,18.22s-22.24-6.59-22.24-18.22,10.15-21.06,22.68-21.06S342.12,237.15,342.12,248.78Z"/><ellipse class="cls-11" cx="262.07" cy="516.79" rx="21.52" ry="19.98"/><path class="cls-13" d="M382.59,316.86c-4.38,13.29-12.64,18.45-23.08,28.41-21.11,20.12-28.51-7.67-30.59-21.43s8.26-26.48,23.08-28.4S391.34,290.32,382.59,316.86Z"/><path class="cls-13" d="M116.07,354.05c-13.48-6-17.72-14.4-26.72-25.5-18.21-22.43,12.5-25,27.46-24.81s26.93,11.61,26.72,25.5S143,366.12,116.07,354.05Z"/><path class="cls-14" d="M151.22,247.86c0,9.47-10-3.86-20.22-3.86s-16.69,13.33-16.69,3.86,8.26-17.14,18.46-17.14S151.22,238.4,151.22,247.86Z"/><path class="cls-14" d="M338.22,248.86c0,9.47-8,16.14-18.22,16.14s-18.69-6.67-18.69-16.14,8.26-17.14,18.46-17.14S338.22,239.4,338.22,248.86Z"/><path class="cls-15" d="M336.24,248.43c0,8.53-7.56,14.07-16.74,14.07S303,257,303,248.43,310.44,233,319.62,233,336.24,239.91,336.24,248.43Z"/><circle class="cls-16" cx="328" cy="241" r="4.5"/><circle class="cls-16" cx="141.5" cy="240.5" r="4.5"/><path class="cls-2" d="M142.42,246.13c-.65,2.11-2,.42-4.11-.24s-4.18,0-3.53-2.14a4,4,0,0,1,7.64,2.38Z"/><circle class="cls-2" cx="324" cy="243" r="4"/><circle class="cls-16" cx="144.5" cy="247.5" r="1.5"/><circle class="cls-16" cx="328.5" cy="247.5" r="1.5"/><path class="cls-8" d="M321,166.64c-3.93,5.59,13.79,5.89,29,16.54s22.05,27.59,26,22-5.2-18.75-20.37-29.39S325,161.05,321,166.64Z"/><circle class="cls-2" cx="239.5" cy="330.5" r="17.5"/><path class="cls-4" d="M299.24,386.24c-.3.31-1.62-.51-3-1.82s-2.18-2.61-1.88-2.92"/><path class="cls-4" d="M297.9,387.61c-.3.3-1.62-.51-3-1.82s-2.18-2.62-1.88-2.92"/><path class="cls-4" d="M296.29,389.25c-.3.3-1.62-.51-3-1.82s-2.18-2.62-1.89-2.92"/><polyline class="cls-2" points="250.91 406.88 346.24 366.38 347.02 368.21 251.68 408.71"/><polygon class="cls-17" points="251.35 407.93 247.79 390.34 234.1 415.26 251.35 407.93"/><polygon class="cls-18" points="251.35 407.93 261.54 422.7 234.1 415.26 251.35 407.93"/><polygon class="cls-19" points="248.91 408.97 246.58 397.48 237.64 413.75 248.91 408.97"/><polygon class="cls-19" points="248.91 408.97 255.56 418.62 237.64 413.75 248.91 408.97"/><path class="cls-20" d="M256.11,408.06c.24-.1.07-1.06-.39-2.14s-1-1.88-1.28-1.77"/><path class="cls-20" d="M257.44,407.5c.24-.1.07-1.06-.39-2.15s-1-1.87-1.28-1.77"/><path class="cls-20" d="M258.54,407c.25-.1.07-1.06-.39-2.15s-1-1.87-1.27-1.76"/><ellipse class="cls-20" cx="345.47" cy="367.94" rx="18.39" ry="13.33" transform="translate(-116.36 164.37) rotate(-23.02)"/><ellipse class="cls-10" cx="353.69" cy="364.45" rx="6.65" ry="4.82" transform="translate(-114.34 167.31) rotate(-23.02)"/><rect x="261.36" y="341.68" width="30.86" height="3" rx="1.5" ry="1.5" transform="translate(414.29 762.08) rotate(-159.28)"/><rect x="251.62" y="356.44" width="30.86" height="3" rx="1.5" ry="1.5" transform="translate(219.09 801.94) rotate(-137.11)"/><rect x="257.33" y="349.41" width="29.31" height="1.05" rx="0.52" ry="0.52" transform="translate(332.34 789.01) rotate(-149.97)"/><path class="cls-2" d="M109.43,266.69c1.42-4.09-.64-11.18-.64-11.18s-8.19,3.33-9.62,7.42-.28,8.25,2.56,9.29S108,270.79,109.43,266.69Z"/></svg>